<svg xmlns="http://www.w3.org/2000/svg" xmlns:xlink="http://www.w3.org/1999/xlink" width="1249" height="906" viewBox="-50 -50 1249 906"><title>ControlPanel</title><style type="text/css">
path, polyline, polygon {stroke-linejoin:round;}
path, polyline, polygon, line {stroke-linecap:round;}
rect, circle, ellipse, polyline, line, polygon, path {shape-rendering:crispEdges;}
</style>
<rect x="-50" y="-50" width="1249" height="906" fill="#FFFFFF" stroke="none"/><g><g><g display="none"><text x="572.640625" y="-3" fill="#000080" font-family="Arial" font-size="7pt" font-weight="" font-style="" dominant-baseline="" text-anchor="start">NO</text></g><g display="none"><text x="572.6484375" y="-13.703125" fill="#000080" font-family="Arial" font-size="7pt" font-weight="" font-style="" dominant-baseline="" text-anchor="start">.</text></g><path d="M 206 10 L 206 0 M 206 796 L 206 806 M 402 10 L 402 0 M 402 796 L 402 806 M 598 10 L 598 0 M 598 796 L 598 806 M 794 10 L 794 0 M 794 796 L 794 806 M 990 10 L 990 0 M 990 796 L 990 806 M 10 206 L 0 206 M 1139 206 L 1149 206 M 10 402 L 0 402 M 1139 402 L 1149 402 M 10 598 L 0 598 M 1139 598 L 1149 598 M 10 794 L 0 794 M 1139 794 L 1149 794" stroke="#880000" stroke-width="1" fill="none"/><g><text x="1.5" y="108" fill="#880000" font-family="Verdana" font-size="7pt" font-weight="" font-style="" dominant-baseline="" text-anchor="start" type="comment">A</text></g><g><text x="1140.5" y="108" fill="#880000" font-family="Verdana" font-size="7pt" font-weight="" font-style="" dominant-baseline="" text-anchor="start" type="comment">A</text></g><g><text x="1.5" y="304" fill="#880000" font-family="Verdana" font-size="7pt" font-weight="" font-style="" dominant-baseline="" text-anchor="start" type="comment">B</text></g><g><text x="1140.5" y="304" fill="#880000" font-family="Verdana" font-size="7pt" font-weight="" font-style="" dominant-baseline="" text-anchor="start" type="comment">B</text></g><g><text x="1.5" y="500" fill="#880000" font-family="Verdana" font-size="7pt" font-weight="" font-style="" dominant-baseline="" text-anchor="start" type="comment">C</text></g><g><text x="1140.5" y="500" fill="#880000" font-family="Verdana" font-size="7pt" font-weight="" font-style="" dominant-baseline="" text-anchor="start" type="comment">C</text></g><g><text x="1.5" y="696" fill="#880000" font-family="Verdana" font-size="7pt" font-weight="" font-style="" dominant-baseline="" text-anchor="start" type="comment">D</text></g><g><text x="1140.5" y="696" fill="#880000" font-family="Verdana" font-size="7pt" font-weight="" font-style="" dominant-baseline="" text-anchor="start" type="comment">D</text></g><g><text x="108" y="8.5" fill="#880000" font-family="Verdana" font-size="7pt" font-weight="" font-style="" dominant-baseline="" text-anchor="start" type="comment">1</text></g><g><text x="108" y="804.5" fill="#880000" font-family="Verdana" font-size="7pt" font-weight="" font-style="" dominant-baseline="" text-anchor="start" type="comment">1</text></g><g><text x="304" y="8.5" fill="#880000" font-family="Verdana" font-size="7pt" font-weight="" font-style="" dominant-baseline="" text-anchor="start" type="comment">2</text></g><g><text x="304" y="804.5" fill="#880000" font-family="Verdana" font-size="7pt" font-weight="" font-style="" dominant-baseline="" text-anchor="start" type="comment">2</text></g><g><text x="500" y="8.5" fill="#880000" font-family="Verdana" font-size="7pt" font-weight="" font-style="" dominant-baseline="" text-anchor="start" type="comment">3</text></g><g><text x="500" y="804.5" fill="#880000" font-family="Verdana" font-size="7pt" font-weight="" font-style="" dominant-baseline="" text-anchor="start" type="comment">3</text></g><g><text x="696" y="8.5" fill="#880000" font-family="Verdana" font-size="7pt" font-weight="" font-style="" dominant-baseline="" text-anchor="start" type="comment">4</text></g><g><text x="696" y="804.5" fill="#880000" font-family="Verdana" font-size="7pt" font-weight="" font-style="" dominant-baseline="" text-anchor="start" type="comment">4</text></g><g><text x="892" y="8.5" fill="#880000" font-family="Verdana" font-size="7pt" font-weight="" font-style="" dominant-baseline="" text-anchor="start" type="comment">5</text></g><g><text x="892" y="804.5" fill="#880000" font-family="Verdana" font-size="7pt" font-weight="" font-style="" dominant-baseline="" text-anchor="start" type="comment">5</text></g><rect x="10" y="10" width="1129" height="786" stroke="#880000" stroke-width="1" fill="none"/><rect x="0" y="0" width="1149" height="806" stroke="#880000" stroke-width="1" fill="none"/><rect x="739" y="716" width="400" height="80" stroke="#880000" stroke-width="1" fill="none"/><polyline points="739 756 1139 756" stroke="#880000" stroke-width="1" fill="none" stroke-linecap="round"/><polyline points="739 776 1139 776" stroke="#880000" stroke-width="1" fill="none" stroke-linecap="round"/><polyline points="1059 716 1059 756" stroke="#880000" stroke-width="1" fill="none" stroke-linecap="round"/><polyline points="1019 756 1019 776" stroke="#880000" stroke-width="1" fill="none" stroke-linecap="round"/><polyline points="934 776 934 796" stroke="#880000" stroke-width="1" fill="none" stroke-linecap="round"/><g><text x="744" y="728" fill="#880000" font-family="Verdana" font-size="8pt" font-weight="" font-style="" dominant-baseline="" text-anchor="start" type="comment">TITLE:</text></g><g><text x="749" y="746" fill="#0000FF" font-family="Verdana" font-size="10pt" font-weight="" font-style="" dominant-baseline="" text-anchor="start" type="comment">Control Panel</text></g><g><text x="1065" y="742" fill="#880000" font-family="Verdana" font-size="8pt" font-weight="" font-style="" dominant-baseline="" text-anchor="start" type="comment">REV:</text></g><g><text x="1096" y="743" fill="#0000FF" font-family="Verdana" font-size="9pt" font-weight="" font-style="" dominant-baseline="" text-anchor="start" type="comment">1.0</text></g><g><text x="744" y="771" fill="#880000" font-family="Verdana" font-size="8pt" font-weight="" font-style="" dominant-baseline="" text-anchor="start" type="comment">Date:</text></g><g><text x="794" y="771" fill="#0000FF" font-family="Verdana" font-size="9pt" font-weight="" font-style="" dominant-baseline="" text-anchor="start" type="comment">2017-11-22</text></g><g><text x="1024" y="771" fill="#880000" font-family="Verdana" font-size="8pt" font-weight="" font-style="" dominant-baseline="" text-anchor="start" type="comment">Sheet:</text></g><g><text x="1069" y="771" fill="#0000FF" font-family="Verdana" font-size="9pt" font-weight="" font-style="" dominant-baseline="" text-anchor="start" type="comment">1/1</text></g><g><text x="744" y="791" fill="#880000" font-family="Verdana" font-size="8pt" font-weight="" font-style="" dominant-baseline="" text-anchor="start" type="comment">EasyEDA V4.11.9</text></g><g><text x="944" y="791" fill="#880000" font-family="Verdana" font-size="8pt" font-weight="" font-style="" dominant-baseline="" text-anchor="start" type="comment">Drawn By:</text></g><g><text x="1009" y="791" fill="#0000FF" font-family="Verdana" font-size="9pt" font-weight="" font-style="" dominant-baseline="" text-anchor="start" type="comment">sameday85</text></g></g><g><g display="none"><text x="373.5" y="87" fill="#000080" font-family="Arial" font-size="7pt" font-weight="" font-style="" dominant-baseline="" text-anchor="start">Header-Female-2.54_1x13</text></g><g><text x="374.5" y="78" fill="#000080" font-family="Arial" font-size="7pt" font-weight="" font-style="" dominant-baseline="" text-anchor="start">P1</text></g><rect x="315" y="90" width="130" height="20" stroke="#880000" stroke-width="1" fill="#EFEFEF"/><g><path d="M 320 130 v -20" fill="none" stroke="#000000" stroke-width="1"/><text x="323" y="105" font-family="Verdana" font-size="7pt" fill="#000000" text-anchor="start" transform="rotate(270,323,105)">1</text><text x="319" y="115" font-family="Verdana" font-size="7pt" fill="#000000" text-anchor="end" display="none" transform="rotate(270,319,115)">1</text><circle cx="320" cy="113" r="3" stroke="#000000" fill="none" stroke-width="1" display="none"/><path d="M 323 110 L 320 107 L 317 110" fill="none" stroke="#000000" stroke-width="1" display="none"/></g><g><path d="M 330 130 v -20" fill="none" stroke="#000000" stroke-width="1"/><text x="333" y="105" font-family="Verdana" font-size="7pt" fill="#000000" text-anchor="start" transform="rotate(270,333,105)">2</text><text x="329" y="115" font-family="Verdana" font-size="7pt" fill="#000000" text-anchor="end" display="none" transform="rotate(270,329,115)">2</text><circle cx="330" cy="113" r="3" stroke="#000000" fill="none" stroke-width="1" display="none"/><path d="M 333 110 L 330 107 L 327 110" fill="none" stroke="#000000" stroke-width="1" display="none"/></g><g><path d="M 340 130 v -20" fill="none" stroke="#000000" stroke-width="1"/><text x="343" y="105" font-family="Verdana" font-size="7pt" fill="#000000" text-anchor="start" transform="rotate(270,343,105)">3</text><text x="339" y="115" font-family="Verdana" font-size="7pt" fill="#000000" text-anchor="end" display="none" transform="rotate(270,339,115)">3</text><circle cx="340" cy="113" r="3" stroke="#000000" fill="none" stroke-width="1" display="none"/><path d="M 343 110 L 340 107 L 337 110" fill="none" stroke="#000000" stroke-width="1" display="none"/></g><g><path d="M 350 130 v -20" fill="none" stroke="#000000" stroke-width="1"/><text x="353" y="105" font-family="Verdana" font-size="7pt" fill="#000000" text-anchor="start" transform="rotate(270,353,105)">4</text><text x="349" y="115" font-family="Verdana" font-size="7pt" fill="#000000" text-anchor="end" display="none" transform="rotate(270,349,115)">4</text><circle cx="350" cy="113" r="3" stroke="#000000" fill="none" stroke-width="1" display="none"/><path d="M 353 110 L 350 107 L 347 110" fill="none" stroke="#000000" stroke-width="1" display="none"/></g><g><path d="M 360 130 v -20" fill="none" stroke="#000000" stroke-width="1"/><text x="363" y="105" font-family="Verdana" font-size="7pt" fill="#000000" text-anchor="start" transform="rotate(270,363,105)">5</text><text x="359" y="115" font-family="Verdana" font-size="7pt" fill="#000000" text-anchor="end" display="none" transform="rotate(270,359,115)">5</text><circle cx="360" cy="113" r="3" stroke="#000000" fill="none" stroke-width="1" display="none"/><path d="M 363 110 L 360 107 L 357 110" fill="none" stroke="#000000" stroke-width="1" display="none"/></g><g><path d="M 370 130 v -20" fill="none" stroke="#000000" stroke-width="1"/><text x="373" y="105" font-family="Verdana" font-size="7pt" fill="#000000" text-anchor="start" transform="rotate(270,373,105)">6</text><text x="369" y="115" font-family="Verdana" font-size="7pt" fill="#000000" text-anchor="end" display="none" transform="rotate(270,369,115)">6</text><circle cx="370" cy="113" r="3" stroke="#000000" fill="none" stroke-width="1" display="none"/><path d="M 373 110 L 370 107 L 367 110" fill="none" stroke="#000000" stroke-width="1" display="none"/></g><g><path d="M 380 130 v -20" fill="none" stroke="#000000" stroke-width="1"/><text x="383" y="105" font-family="Verdana" font-size="7pt" fill="#000000" text-anchor="start" transform="rotate(270,383,105)">7</text><text x="379" y="115" font-family="Verdana" font-size="7pt" fill="#000000" text-anchor="end" display="none" transform="rotate(270,379,115)">7</text><circle cx="380" cy="113" r="3" stroke="#000000" fill="none" stroke-width="1" display="none"/><path d="M 383 110 L 380 107 L 377 110" fill="none" stroke="#000000" stroke-width="1" display="none"/></g><g><path d="M 390 130 v -20" fill="none" stroke="#000000" stroke-width="1"/><text x="393" y="105" font-family="Verdana" font-size="7pt" fill="#000000" text-anchor="start" transform="rotate(270,393,105)">8</text><text x="389" y="115" font-family="Verdana" font-size="7pt" fill="#000000" text-anchor="end" display="none" transform="rotate(270,389,115)">8</text><circle cx="390" cy="113" r="3" stroke="#000000" fill="none" stroke-width="1" display="none"/><path d="M 393 110 L 390 107 L 387 110" fill="none" stroke="#000000" stroke-width="1" display="none"/></g><g><path d="M 400 130 v -20" fill="none" stroke="#000000" stroke-width="1"/><text x="403" y="105" font-family="Verdana" font-size="7pt" fill="#000000" text-anchor="start" transform="rotate(270,403,105)">9</text><text x="399" y="115" font-family="Verdana" font-size="7pt" fill="#000000" text-anchor="end" display="none" transform="rotate(270,399,115)">9</text><circle cx="400" cy="113" r="3" stroke="#000000" fill="none" stroke-width="1" display="none"/><path d="M 403 110 L 400 107 L 397 110" fill="none" stroke="#000000" stroke-width="1" display="none"/></g><g><path d="M 410 130 v -20" fill="none" stroke="#000000" stroke-width="1"/><text x="413" y="105" font-family="Verdana" font-size="7pt" fill="#000000" text-anchor="start" transform="rotate(270,413,105)">10</text><text x="409" y="115" font-family="Verdana" font-size="7pt" fill="#000000" text-anchor="end" display="none" transform="rotate(270,409,115)">10</text><circle cx="410" cy="113" r="3" stroke="#000000" fill="none" stroke-width="1" display="none"/><path d="M 413 110 L 410 107 L 407 110" fill="none" stroke="#000000" stroke-width="1" display="none"/></g><g><path d="M 420 130 v -20" fill="none" stroke="#000000" stroke-width="1"/><text x="423" y="105" font-family="Verdana" font-size="7pt" fill="#000000" text-anchor="start" transform="rotate(270,423,105)">11</text><text x="419" y="115" font-family="Verdana" font-size="7pt" fill="#000000" text-anchor="end" display="none" transform="rotate(270,419,115)">11</text><circle cx="420" cy="113" r="3" stroke="#000000" fill="none" stroke-width="1" display="none"/><path d="M 423 110 L 420 107 L 417 110" fill="none" stroke="#000000" stroke-width="1" display="none"/></g><g><path d="M 430 130 v -20" fill="none" stroke="#000000" stroke-width="1"/><text x="433" y="105" font-family="Verdana" font-size="7pt" fill="#000000" text-anchor="start" transform="rotate(270,433,105)">12</text><text x="429" y="115" font-family="Verdana" font-size="7pt" fill="#000000" text-anchor="end" display="none" transform="rotate(270,429,115)">12</text><circle cx="430" cy="113" r="3" stroke="#000000" fill="none" stroke-width="1" display="none"/><path d="M 433 110 L 430 107 L 427 110" fill="none" stroke="#000000" stroke-width="1" display="none"/></g><g><path d="M 440 130 v -20" fill="none" stroke="#000000" stroke-width="1"/><text x="443" y="105" font-family="Verdana" font-size="7pt" fill="#000000" text-anchor="start" transform="rotate(270,443,105)">13</text><text x="439" y="115" font-family="Verdana" font-size="7pt" fill="#000000" text-anchor="end" display="none" transform="rotate(270,439,115)">13</text><circle cx="440" cy="113" r="3" stroke="#000000" fill="none" stroke-width="1" display="none"/><path d="M 443 110 L 440 107 L 437 110" fill="none" stroke="#000000" stroke-width="1" display="none"/></g></g><g><g display="none"><text x="299" y="207" fill="#000080" font-family="Arial" font-size="7pt" font-weight="" font-style="" dominant-baseline="" text-anchor="start">SWITCH-6x6x5_TH</text></g><g><text x="300.71875" y="203.5625" fill="#000080" font-family="Arial" font-size="7pt" font-weight="" font-style="" dominant-baseline="" text-anchor="start">SW1</text></g><g><path d="M 275 220 h 20" fill="none" stroke="#000000" stroke-width="1"/><text x="300" y="223" font-family="Verdana" font-size="7pt" fill="#000000" text-anchor="start" display="none">1</text><text x="290" y="219" font-family="Verdana" font-size="7pt" fill="#000000" text-anchor="end">1</text><circle cx="292" cy="220" r="3" stroke="#000000" fill="none" stroke-width="1" display="none"/><path d="M 295 223 L 298 220 L 295 217" fill="none" stroke="#000000" stroke-width="1" display="none"/></g><g><path d="M 275 232 h 20" fill="none" stroke="#000000" stroke-width="1"/><text x="300" y="235" font-family="Verdana" font-size="7pt" fill="#000000" text-anchor="start" display="none">2</text><text x="290" y="231" font-family="Verdana" font-size="7pt" fill="#000000" text-anchor="end">2</text><circle cx="292" cy="232" r="3" stroke="#000000" fill="none" stroke-width="1" display="none"/><path d="M 295 235 L 298 232 L 295 229" fill="none" stroke="#000000" stroke-width="1" display="none"/></g><polygon points="295 213 295 214 325 214 325 213 314 213 314 210 306 210 306 213" stroke="#880000" stroke-width="1" fill="#EFEFEF" stroke-linecap="round"/><path d="M 301 220 A 3 3 0 1 0 301 220.005" stroke="#880000" stroke-width="1" fill="none"/><path d="M 325 220 A 3 3 0 1 0 325 220.005" stroke="#880000" stroke-width="1" fill="none"/><g><path d="M 345 220 h -20" fill="none" stroke="#000000" stroke-width="1"/><text x="320" y="223" font-family="Verdana" font-size="7pt" fill="#000000" text-anchor="end" display="none">3</text><text x="330" y="219" font-family="Verdana" font-size="7pt" fill="#000000" text-anchor="start">3</text><circle cx="328" cy="220" r="3" stroke="#000000" fill="none" stroke-width="1" display="none"/><path d="M 325 217 L 322 220 L 325 223" fill="none" stroke="#000000" stroke-width="1" display="none"/></g><g><path d="M 345 232 h -20" fill="none" stroke="#000000" stroke-width="1"/><text x="320" y="235" font-family="Verdana" font-size="7pt" fill="#000000" text-anchor="end" display="none">4</text><text x="330" y="231" font-family="Verdana" font-size="7pt" fill="#000000" text-anchor="start">4</text><circle cx="328" cy="232" r="3" stroke="#000000" fill="none" stroke-width="1" display="none"/><path d="M 325 229 L 322 232 L 325 235" fill="none" stroke="#000000" stroke-width="1" display="none"/></g><path d="M 301 232 A 3 3 0 1 0 301 232.005" stroke="#880000" stroke-width="1" fill="none"/><path d="M 325 232 A 3 3 0 1 0 325 232.005" stroke="#880000" stroke-width="1" fill="none"/><polyline points="295 220 295 232" stroke="#880000" stroke-width="1" fill="none" stroke-linecap="round"/><polyline points="325 232 325 220" stroke="#880000" stroke-width="1" fill="none" stroke-linecap="round"/></g><g><g><text x="238.921875" y="212" fill="#000080" font-family="Arial" font-size="7pt" font-weight="" font-style="" dominant-baseline="" text-anchor="start">1k</text></g><g><text x="238.9296875" y="202.859375" fill="#000080" font-family="Arial" font-size="7pt" font-weight="" font-style="" dominant-baseline="" text-anchor="start">R1</text></g><polyline points="260 220 257 225" stroke="#A00000" stroke-width="1" fill="none" stroke-linecap="round"/><polyline points="252 215 247 225" stroke="#A00000" stroke-width="1" fill="none" stroke-linecap="round"/><polyline points="257 225 252 215" stroke="#A00000" stroke-width="1" fill="none" stroke-linecap="round"/><g><path d="M 265 220 h -5" fill="none" stroke="#800" stroke-width="1"/><text x="256" y="220" font-family="Verdana" font-size="7pt" fill="#800" text-anchor="end" display="none">2</text><text x="264" y="216" font-family="Verdana" font-size="7pt" fill="#800" text-anchor="start" display="none">2</text><circle cx="263" cy="220" r="3" stroke="#800" fill="none" stroke-width="1" display="none"/><path d="M 260 217 L 257 220 L 260 223" fill="none" stroke="#800" stroke-width="1" display="none"/></g><polyline points="238 225 233 215" stroke="#A00000" stroke-width="1" fill="none" stroke-linecap="round"/><polyline points="247 225 243 215" stroke="#A00000" stroke-width="1" fill="none" stroke-linecap="round"/><polyline points="243 215 238 225" stroke="#A00000" stroke-width="1" fill="none" stroke-linecap="round"/><polyline points="233 215 230 220" stroke="#A00000" stroke-width="1" fill="none" stroke-linecap="round"/><g><path d="M 225 220 h 5" fill="none" stroke="#800" stroke-width="1"/><text x="234" y="220" font-family="Verdana" font-size="7pt" fill="#800" text-anchor="start" display="none">1</text><text x="226" y="216" font-family="Verdana" font-size="7pt" fill="#800" text-anchor="end" display="none">1</text><circle cx="227" cy="220" r="3" stroke="#800" fill="none" stroke-width="1" display="none"/><path d="M 230 223 L 233 220 L 230 217" fill="none" stroke="#800" stroke-width="1" display="none"/></g></g><g><text x="164" y="342" font-family="Times New Roman" font-size="9pt" fill="#000080" text-anchor="start" display="none">GND</text><polyline points="175 365 175 355" stroke="#000000" stroke-width="1" fill="none" stroke-linecap="round"/><polyline points="165 365 184 365" stroke="#000000" stroke-width="1" fill="none" stroke-linecap="round"/><polyline points="169 367 182 367" stroke="#000000" stroke-width="1" fill="none" stroke-linecap="round"/><polyline points="171 369 178 369" stroke="#000000" stroke-width="1" fill="none" stroke-linecap="round"/><polyline points="174 371 176 371" stroke="#000000" stroke-width="1" fill="none" stroke-linecap="round"/></g><g><g display="none"><text x="473.921875" y="173" fill="#000080" font-family="Arial" font-size="7pt" font-weight="" font-style="" dominant-baseline="" text-anchor="start">LED</text></g><g><text x="470.0078125" y="168.5625" fill="#000080" font-family="Arial" font-size="7pt" font-weight="" font-style="" dominant-baseline="" text-anchor="start">LED</text></g><polygon points="475 195 485 185 475 176" stroke="#880000" stroke-width="1" fill="#FEFEFE" stroke-linecap="round"/><polyline points="485 176 485 195" stroke="#880000" stroke-width="1" fill="none" stroke-linecap="round"/><g><path d="M 455 185 h 20" fill="none" stroke="#880000" stroke-width="1"/><text x="478" y="188" font-family="Verdana" font-size="7pt" fill="#0000FF" text-anchor="start" display="none">A</text><text x="469" y="184" font-family="Verdana" font-size="7pt" fill="#0000FF" text-anchor="end" display="none">1</text><circle cx="472" cy="185" r="3" stroke="#880000" fill="none" stroke-width="1" display="none"/><path d="M 475 188 L 478 185 L 475 182" fill="none" stroke="#880000" stroke-width="1" display="none"/></g><g><path d="M 505 185 h -20" fill="none" stroke="#880000" stroke-width="1"/><text x="482" y="188" font-family="Verdana" font-size="7pt" fill="#0000FF" text-anchor="end" display="none">K</text><text x="491" y="184" font-family="Verdana" font-size="7pt" fill="#0000FF" text-anchor="start" display="none">2</text><circle cx="488" cy="185" r="3" stroke="#880000" fill="none" stroke-width="1" display="none"/><path d="M 485 182 L 482 185 L 485 188" fill="none" stroke="#880000" stroke-width="1" display="none"/></g></g><polyline points="340 130 340 185 455 185" stroke="#008800" stroke-width="1" fill="none" stroke-linecap="round"/><g><g><text x="523.921875" y="177" fill="#000080" font-family="Arial" font-size="7pt" font-weight="" font-style="" dominant-baseline="" text-anchor="start">1k</text></g><g><text x="523.9296875" y="167.859375" fill="#000080" font-family="Arial" font-size="7pt" font-weight="" font-style="" dominant-baseline="" text-anchor="start">R2</text></g><polyline points="545 185 542 190" stroke="#A00000" stroke-width="1" fill="none" stroke-linecap="round"/><polyline points="537 180 532 190" stroke="#A00000" stroke-width="1" fill="none" stroke-linecap="round"/><polyline points="542 190 537 180" stroke="#A00000" stroke-width="1" fill="none" stroke-linecap="round"/><g><path d="M 550 185 h -5" fill="none" stroke="#800" stroke-width="1"/><text x="541" y="185" font-family="Verdana" font-size="7pt" fill="#800" text-anchor="end" display="none">2</text><text x="549" y="181" font-family="Verdana" font-size="7pt" fill="#800" text-anchor="start" display="none">2</text><circle cx="548" cy="185" r="3" stroke="#800" fill="none" stroke-width="1" display="none"/><path d="M 545 182 L 542 185 L 545 188" fill="none" stroke="#800" stroke-width="1" display="none"/></g><polyline points="523 190 518 180" stroke="#A00000" stroke-width="1" fill="none" stroke-linecap="round"/><polyline points="532 190 528 180" stroke="#A00000" stroke-width="1" fill="none" stroke-linecap="round"/><polyline points="528 180 523 190" stroke="#A00000" stroke-width="1" fill="none" stroke-linecap="round"/><polyline points="518 180 515 185" stroke="#A00000" stroke-width="1" fill="none" stroke-linecap="round"/><g><path d="M 510 185 h 5" fill="none" stroke="#800" stroke-width="1"/><text x="519" y="185" font-family="Verdana" font-size="7pt" fill="#800" text-anchor="start" display="none">1</text><text x="511" y="181" font-family="Verdana" font-size="7pt" fill="#800" text-anchor="end" display="none">1</text><circle cx="512" cy="185" r="3" stroke="#800" fill="none" stroke-width="1" display="none"/><path d="M 515 188 L 518 185 L 515 182" fill="none" stroke="#800" stroke-width="1" display="none"/></g></g><g><g><text x="255" y="278.5625" fill="#000080" font-family="Arial" font-size="7pt" font-weight="" font-style="" dominant-baseline="" text-anchor="start">Photoresistor</text></g><g display="none"><text x="273.9296875" y="267.859375" fill="#000080" font-family="Arial" font-size="7pt" font-weight="" font-style="" dominant-baseline="" text-anchor="start">R3</text></g><polyline points="295 285 292 290" stroke="#A00000" stroke-width="1" fill="none" stroke-linecap="round"/><polyline points="287 280 282 290" stroke="#A00000" stroke-width="1" fill="none" stroke-linecap="round"/><polyline points="292 290 287 280" stroke="#A00000" stroke-width="1" fill="none" stroke-linecap="round"/><g><path d="M 300 285 h -5" fill="none" stroke="#800" stroke-width="1"/><text x="291" y="285" font-family="Verdana" font-size="7pt" fill="#800" text-anchor="end" display="none">2</text><text x="299" y="281" font-family="Verdana" font-size="7pt" fill="#800" text-anchor="start" display="none">2</text><circle cx="298" cy="285" r="3" stroke="#800" fill="none" stroke-width="1" display="none"/><path d="M 295 282 L 292 285 L 295 288" fill="none" stroke="#800" stroke-width="1" display="none"/></g><polyline points="273 290 268 280" stroke="#A00000" stroke-width="1" fill="none" stroke-linecap="round"/><polyline points="282 290 278 280" stroke="#A00000" stroke-width="1" fill="none" stroke-linecap="round"/><polyline points="278 280 273 290" stroke="#A00000" stroke-width="1" fill="none" stroke-linecap="round"/><polyline points="268 280 265 285" stroke="#A00000" stroke-width="1" fill="none" stroke-linecap="round"/><g><path d="M 260 285 h 5" fill="none" stroke="#800" stroke-width="1"/><text x="269" y="285" font-family="Verdana" font-size="7pt" fill="#800" text-anchor="start" display="none">1</text><text x="261" y="281" font-family="Verdana" font-size="7pt" fill="#800" text-anchor="end" display="none">1</text><circle cx="262" cy="285" r="3" stroke="#800" fill="none" stroke-width="1" display="none"/><path d="M 265 288 L 268 285 L 265 282" fill="none" stroke="#800" stroke-width="1" display="none"/></g></g><g><g><text x="219.1875" y="317.25" fill="#000080" font-family="Arial" font-size="7pt" font-weight="" font-style="" dominant-baseline="" text-anchor="start">1u</text></g><g><text x="219.7" y="308.258" fill="#000080" font-family="Arial" font-size="7pt" font-weight="" font-style="" dominant-baseline="" text-anchor="start">C1</text></g><polyline points="210 315 210 309" stroke="#8D2323" stroke-width="1" fill="none" stroke-linecap="round"/><polyline points="210 295 210 302" stroke="#8D2323" stroke-width="1" fill="none" stroke-linecap="round"/><rect x="202.5" y="302.2" width="14.7" height="1.8" stroke="#8D2323" stroke-width="1" fill="none"/><rect x="202.5" y="307.2" width="14.7" height="1.8" stroke="#8D2323" stroke-width="1" fill="none"/><g><path d="M 210 325 v -10" fill="none" stroke="#8D2323" stroke-width="1"/><text x="213" y="312" font-family="Verdana" font-size="7pt" fill="#8D2323" text-anchor="start" display="none" transform="rotate(270,213,312)">1</text><text x="209" y="321" font-family="Verdana" font-size="7pt" fill="#8D2323" text-anchor="end" display="none" transform="rotate(270,209,321)">1</text><circle cx="210" cy="312" r="3" stroke="#8D2323" fill="none" stroke-width="1" display="none"/><path d="M 207 315 L 210 318 L 213 315" fill="none" stroke="#8D2323" stroke-width="1" display="none"/></g><g><path d="M 210 285 v 10" fill="none" stroke="#8D2323" stroke-width="1"/><text x="213" y="298" font-family="Verdana" font-size="7pt" fill="#8D2323" text-anchor="end" display="none" transform="rotate(270,213,298)">2</text><text x="209" y="289" font-family="Verdana" font-size="7pt" fill="#8D2323" text-anchor="start" display="none" transform="rotate(270,209,289)">2</text><circle cx="210" cy="298" r="3" stroke="#8D2323" fill="none" stroke-width="1" display="none"/><path d="M 213 295 L 210 292 L 207 295" fill="none" stroke="#8D2323" stroke-width="1" display="none"/></g></g><polyline points="225 220 175 220 175 355" stroke="#000000" stroke-width="1" fill="none" stroke-linecap="round"/><g><g><text x="460.71875" y="268.5625" fill="#000080" font-family="Arial" font-size="7pt" font-weight="" font-style="" dominant-baseline="" text-anchor="start">Amplifier</text></g><g display="none"><text x="522.0078125" y="268.2109375" fill="#000080" font-family="Arial" font-size="7pt" font-weight="" font-style="" dominant-baseline="" text-anchor="start">P2</text></g><g><path d="M 450 305 v -20" fill="none" stroke="#880000" stroke-width="1"/><text x="453" y="283" font-family="Verdana" font-size="7pt" fill="#0000FF" text-anchor="start" transform="rotate(270,453,283)">1</text><text x="449" y="290" font-family="Verdana" font-size="7pt" fill="#0000FF" text-anchor="end" transform="rotate(270,449,290)">1</text><circle cx="450" cy="288" r="3" stroke="#880000" fill="none" stroke-width="1" display="none"/><path d="M 453 285 L 450 282 L 447 285" fill="none" stroke="#880000" stroke-width="1" display="none"/></g><g><path d="M 450 225 v 20" fill="none" stroke="#880000" stroke-width="1"/><text x="453" y="247" font-family="Verdana" font-size="7pt" fill="#0000FF" text-anchor="end" transform="rotate(270,453,247)">2</text><text x="449" y="240" font-family="Verdana" font-size="7pt" fill="#0000FF" text-anchor="start" transform="rotate(270,449,240)">2</text><circle cx="450" cy="242" r="3" stroke="#880000" fill="none" stroke-width="1" display="none"/><path d="M 447 245 L 450 248 L 453 245" fill="none" stroke="#880000" stroke-width="1" display="none"/></g><g><path d="M 460 305 v -20" fill="none" stroke="#880000" stroke-width="1"/><text x="463" y="283" font-family="Verdana" font-size="7pt" fill="#0000FF" text-anchor="start" transform="rotate(270,463,283)">3</text><text x="459" y="290" font-family="Verdana" font-size="7pt" fill="#0000FF" text-anchor="end" transform="rotate(270,459,290)">3</text><circle cx="460" cy="288" r="3" stroke="#880000" fill="none" stroke-width="1" display="none"/><path d="M 463 285 L 460 282 L 457 285" fill="none" stroke="#880000" stroke-width="1" display="none"/></g><g><path d="M 460 225 v 20" fill="none" stroke="#880000" stroke-width="1"/><text x="463" y="247" font-family="Verdana" font-size="7pt" fill="#0000FF" text-anchor="end" transform="rotate(270,463,247)">4</text><text x="459" y="240" font-family="Verdana" font-size="7pt" fill="#0000FF" text-anchor="start" transform="rotate(270,459,240)">4</text><circle cx="460" cy="242" r="3" stroke="#880000" fill="none" stroke-width="1" display="none"/><path d="M 457 245 L 460 248 L 463 245" fill="none" stroke="#880000" stroke-width="1" display="none"/></g><g><path d="M 470 305 v -20" fill="none" stroke="#880000" stroke-width="1"/><text x="473" y="283" font-family="Verdana" font-size="7pt" fill="#0000FF" text-anchor="start" transform="rotate(270,473,283)">5</text><text x="469" y="290" font-family="Verdana" font-size="7pt" fill="#0000FF" text-anchor="end" transform="rotate(270,469,290)">5</text><circle cx="470" cy="288" r="3" stroke="#880000" fill="none" stroke-width="1" display="none"/><path d="M 473 285 L 470 282 L 467 285" fill="none" stroke="#880000" stroke-width="1" display="none"/></g><g><path d="M 470 225 v 20" fill="none" stroke="#880000" stroke-width="1"/><text x="473" y="247" font-family="Verdana" font-size="7pt" fill="#0000FF" text-anchor="end" transform="rotate(270,473,247)">6</text><text x="469" y="240" font-family="Verdana" font-size="7pt" fill="#0000FF" text-anchor="start" transform="rotate(270,469,240)">6</text><circle cx="470" cy="242" r="3" stroke="#880000" fill="none" stroke-width="1" display="none"/><path d="M 467 245 L 470 248 L 473 245" fill="none" stroke="#880000" stroke-width="1" display="none"/></g><g><path d="M 480 305 v -20" fill="none" stroke="#880000" stroke-width="1"/><text x="483" y="283" font-family="Verdana" font-size="7pt" fill="#0000FF" text-anchor="start" transform="rotate(270,483,283)">7</text><text x="479" y="290" font-family="Verdana" font-size="7pt" fill="#0000FF" text-anchor="end" transform="rotate(270,479,290)">7</text><circle cx="480" cy="288" r="3" stroke="#880000" fill="none" stroke-width="1" display="none"/><path d="M 483 285 L 480 282 L 477 285" fill="none" stroke="#880000" stroke-width="1" display="none"/></g><g><path d="M 480 225 v 20" fill="none" stroke="#880000" stroke-width="1"/><text x="483" y="247" font-family="Verdana" font-size="7pt" fill="#0000FF" text-anchor="end" transform="rotate(270,483,247)">8</text><text x="479" y="240" font-family="Verdana" font-size="7pt" fill="#0000FF" text-anchor="start" transform="rotate(270,479,240)">8</text><circle cx="480" cy="242" r="3" stroke="#880000" fill="none" stroke-width="1" display="none"/><path d="M 477 245 L 480 248 L 483 245" fill="none" stroke="#880000" stroke-width="1" display="none"/></g><g><path d="M 490 305 v -20" fill="none" stroke="#880000" stroke-width="1"/><text x="493" y="283" font-family="Verdana" font-size="7pt" fill="#0000FF" text-anchor="start" transform="rotate(270,493,283)">9</text><text x="489" y="290" font-family="Verdana" font-size="7pt" fill="#0000FF" text-anchor="end" transform="rotate(270,489,290)">9</text><circle cx="490" cy="288" r="3" stroke="#880000" fill="none" stroke-width="1" display="none"/><path d="M 493 285 L 490 282 L 487 285" fill="none" stroke="#880000" stroke-width="1" display="none"/></g><g><path d="M 490 225 v 20" fill="none" stroke="#880000" stroke-width="1"/><text x="493" y="247" font-family="Verdana" font-size="7pt" fill="#0000FF" text-anchor="end" transform="rotate(270,493,247)">10</text><text x="489" y="240" font-family="Verdana" font-size="7pt" fill="#0000FF" text-anchor="start" transform="rotate(270,489,240)">10</text><circle cx="490" cy="242" r="3" stroke="#880000" fill="none" stroke-width="1" display="none"/><path d="M 487 245 L 490 248 L 493 245" fill="none" stroke="#880000" stroke-width="1" display="none"/></g><rect x="440" y="245" width="80" height="40" stroke="#000000" stroke-width="1" fill="none"/><g><path d="M 500 305 v -20" fill="none" stroke="#880000" stroke-width="1"/><text x="503" y="283" font-family="Verdana" font-size="7pt" fill="#0000FF" text-anchor="start" transform="rotate(270,503,283)">11</text><text x="499" y="290" font-family="Verdana" font-size="7pt" fill="#0000FF" text-anchor="end" transform="rotate(270,499,290)">11</text><circle cx="500" cy="288" r="3" stroke="#880000" fill="none" stroke-width="1" display="none"/><path d="M 503 285 L 500 282 L 497 285" fill="none" stroke="#880000" stroke-width="1" display="none"/></g><g><path d="M 500 225 v 20" fill="none" stroke="#880000" stroke-width="1"/><text x="503" y="247" font-family="Verdana" font-size="7pt" fill="#0000FF" text-anchor="end" transform="rotate(270,503,247)">12</text><text x="499" y="240" font-family="Verdana" font-size="7pt" fill="#0000FF" text-anchor="start" transform="rotate(270,499,240)">12</text><circle cx="500" cy="242" r="3" stroke="#880000" fill="none" stroke-width="1" display="none"/><path d="M 497 245 L 500 248 L 503 245" fill="none" stroke="#880000" stroke-width="1" display="none"/></g><g><path d="M 510 305 v -20" fill="none" stroke="#880000" stroke-width="1"/><text x="513" y="283" font-family="Verdana" font-size="7pt" fill="#0000FF" text-anchor="start" transform="rotate(270,513,283)">13</text><text x="509" y="290" font-family="Verdana" font-size="7pt" fill="#0000FF" text-anchor="end" transform="rotate(270,509,290)">13</text><circle cx="510" cy="288" r="3" stroke="#880000" fill="none" stroke-width="1" display="none"/><path d="M 513 285 L 510 282 L 507 285" fill="none" stroke="#880000" stroke-width="1" display="none"/></g><g><path d="M 510 225 v 20" fill="none" stroke="#880000" stroke-width="1"/><text x="513" y="247" font-family="Verdana" font-size="7pt" fill="#0000FF" text-anchor="end" transform="rotate(270,513,247)">14</text><text x="509" y="240" font-family="Verdana" font-size="7pt" fill="#0000FF" text-anchor="start" transform="rotate(270,509,240)">14</text><circle cx="510" cy="242" r="3" stroke="#880000" fill="none" stroke-width="1" display="none"/><path d="M 507 245 L 510 248 L 513 245" fill="none" stroke="#880000" stroke-width="1" display="none"/></g></g><polyline points="360 130 360 325 460 325 460 305" stroke="#008800" stroke-width="1" fill="none" stroke-linecap="round"/><polyline points="470 305 470 325 595 325 595 140 430 140 430 130" stroke="#008800" stroke-width="1" fill="none" stroke-linecap="round"/><g><text x="155.71875" y="47.84375" fill="#000000" font-family="Verdana" font-size="6.5pt" font-weight="" font-style="" dominant-baseline="" text-anchor="start" type="comment">01-LDR 02-BTN 03-LED 04-NA 05-SIGIN 06-NA 07-3V3 08-GND 09-5VIN 10-GND 11-5VOUT 12-SIGOUT 13-GND</text></g><polyline points="510 305 510 355 175 355" stroke="#000000" stroke-width="1" fill="none" stroke-linecap="round"/><polyline points="450 305 450 355 175 355" stroke="#000000" stroke-width="1" fill="none" stroke-linecap="round"/><polyline points="300 285 380 285 380 130" stroke="#FF0000" stroke-width="1" fill="none" stroke-linecap="round"/><polyline points="265 220 275 220 275 185 330 185 330 130" stroke="#008800" stroke-width="1" fill="none" stroke-linecap="round"/><polyline points="320 130 210 130 210 285 260 285" stroke="#008800" stroke-width="1" fill="none" stroke-linecap="round"/><polyline points="505 185 510 185" stroke="#008800" stroke-width="1" fill="none" stroke-linecap="round"/><polyline points="550 185 550 355 175 355" stroke="#000000" stroke-width="1" fill="none" stroke-linecap="round"/><polyline points="440 130 440 150 410 150 410 130" stroke="#000000" stroke-width="1" fill="none" stroke-linecap="round"/><polyline points="175 355 390 355 390 130" stroke="#008800" stroke-width="1" fill="none" stroke-linecap="round"/><polyline points="175 355 410 355 410 150" stroke="#000000" stroke-width="1" fill="none" stroke-linecap="round"/><g><circle cx="410" cy="150" r="2.5" fill="#CC0000" stroke-width="1"/></g><polyline points="420 130 420 205 450 205 450 225 400 225 400 130" stroke="#FF0000" stroke-width="1" fill="none" stroke-linecap="round"/><polyline points="420 90 440 70" stroke="#000000" stroke-width="1" fill="none" stroke-linecap="round"/><polyline points="430 90 450 70" stroke="#000000" stroke-width="1" fill="none" stroke-linecap="round"/><polyline points="440 90 460 70" stroke="#000000" stroke-width="1" fill="none" stroke-linecap="round"/><g><circle cx="450" cy="225" r="2.5" fill="#CC0000" stroke-width="1"/></g><g><text x="435.71875" y="67.84375" fill="#000000" font-family="Verdana" font-size="6.5pt" font-weight="" font-style="" dominant-baseline="" text-anchor="start" type="comment">TO LED</text></g><g><circle cx="175" cy="355" r="2.5" fill="#CC0000" stroke-width="1"/></g><g><path d="M 346 126 L 354 134 M 354 126 L 346 134" stroke="#33cc33" stroke-width="1" style="shape-rendering:auto;"/></g><g><path d="M 366 126 L 374 134 M 374 126 L 366 134" stroke="#33cc33" stroke-width="1" style="shape-rendering:auto;"/></g><polyline points="210 325 210 355" stroke="#000000" stroke-width="1" fill="none" stroke-linecap="round"/><g><circle cx="210" cy="355" r="2.5" fill="#CC0000" stroke-width="1"/></g><g><circle cx="210" cy="285" r="2.5" fill="#CC0000" stroke-width="1"/></g><g><text x="365.5" y="227.5" fill="#0000FF" font-family="Verdana" font-size="6.5pt" font-weight="" font-style="" dominant-baseline="" text-anchor="start" type="comment">3V3</text></g><g><text x="455" y="215" fill="#0000FF" font-family="Verdana" font-size="6.5pt" font-weight="" font-style="" dominant-baseline="" text-anchor="start" type="comment">5V0</text></g><polyline points="345 220 380 220" stroke="#FF0000" stroke-width="1" fill="none" stroke-linecap="round"/><g><circle cx="380" cy="220" r="2.5" fill="#CC0000" stroke-width="1"/></g><g><circle cx="275" cy="220" r="2.5" fill="#CC0000" stroke-width="1"/></g></g></svg>